<svg width="26" height="25" viewBox="0 0 26 25" fill="none" xmlns="http://www.w3.org/2000/svg">
<path d="M15.7549 2.58421V5.41336H9.27353V2.58421H15.7549ZM16.6311 0.421021H8.39733C7.79153 0.421021 7.30103 0.958375 7.30103 1.62203V6.37325C7.30103 7.0369 7.79153 7.57426 8.39733 7.57426H16.6311C17.2369 7.57426 17.7274 7.0369 17.7274 6.37325V1.62203C17.7274 0.958375 17.2369 0.421021 16.6311 0.421021Z" fill="url(#paint0_linear_502_88)"/>
<path d="M2.07953 5.46851H22.9512C23.8798 5.46851 24.6344 6.29291 24.6344 7.3125V22.735C24.6344 23.7523 23.8819 24.579 22.9512 24.579H2.07953C1.14883 24.579 0.396301 23.7523 0.396301 22.735V7.3125C0.396301 6.2952 1.14883 5.46851 2.07953 5.46851Z" fill="url(#paint1_linear_502_88)"/>
<path d="M23.5988 4.62817H1.4296C0.639335 4.62817 0 5.32857 0 6.19431V12.4565C0 12.7046 0.113194 12.9319 0.30185 13.072C3.08139 15.1364 7.83343 16.2617 12.5142 16.365C17.195 16.2617 21.947 15.1364 24.7266 13.072C24.9131 12.9342 25.0284 12.7046 25.0284 12.4565V6.19431C25.0284 5.33087 24.3891 4.62817 23.5988 4.62817Z" fill="url(#paint2_linear_502_88)"/>
<path d="M14.2855 16.1465V18.1467C14.2855 18.2592 14.1324 18.351 13.9438 18.351H11.0846C10.8959 18.351 10.7429 18.2592 10.7429 18.1467V16.1465C10.7429 16.034 10.8959 15.9421 11.0846 15.9421H13.9438C14.1324 15.9421 14.2855 16.0317 14.2855 16.1465Z" fill="#FFCA28"/>
<path d="M14.7131 15.5174V15.9675C14.7131 16.1741 14.5601 16.3418 14.3714 16.3418H10.657C10.4683 16.3418 10.3153 16.1741 10.3153 15.9675V15.5174C10.3153 15.3107 10.4683 15.1431 10.657 15.1431H14.3693C14.5601 15.1431 14.7131 15.3107 14.7131 15.5174Z" fill="#F9A825"/>
<path opacity="0.2" d="M16.6311 1.10994C16.8889 1.10994 17.0985 1.33957 17.0985 1.62203V4.628C17.0985 5.0092 17.3794 5.31691 17.7274 5.31691H23.5988C24.0411 5.31691 24.3995 5.70959 24.3995 6.19413V12.4564C24.3995 12.4724 24.3912 12.4885 24.3744 12.5C24.366 12.5069 24.3576 12.5115 24.3471 12.5184C24.3262 12.5322 24.3052 12.5459 24.2843 12.562C24.1082 12.6906 24.0013 12.9065 24.0013 13.1361V22.735C24.0013 23.3711 23.5275 23.8901 22.9469 23.8901H2.07941C1.49877 23.8901 1.02503 23.3711 1.02503 22.735V13.1361C1.02503 12.9042 0.918127 12.6883 0.742048 12.562C0.721086 12.5482 0.700124 12.5322 0.679163 12.5184C0.670778 12.5115 0.660297 12.5069 0.651912 12.5C0.637239 12.4885 0.626758 12.4724 0.626758 12.4564V6.19413C0.626758 5.70959 0.985205 5.31691 1.4275 5.31691H7.2989C7.64687 5.31691 7.92776 5.0092 7.92776 4.628V1.62203C7.92776 1.33957 8.13737 1.10994 8.3952 1.10994H16.6311ZM9.27351 5.31691H15.7549C16.1029 5.31691 16.3838 5.0092 16.3838 4.628V2.58421C16.3838 2.20301 16.1029 1.8953 15.7549 1.8953H9.27351C8.92554 1.8953 8.64465 2.20301 8.64465 2.58421V4.628C8.64465 5.0092 8.92764 5.31691 9.27351 5.31691ZM16.6311 0.421021H8.3973C7.79151 0.421021 7.301 0.958375 7.301 1.62203V4.628H1.4296C0.639335 4.628 0 5.32839 0 6.19413V12.4564C0 12.7044 0.113194 12.9317 0.30185 13.0718C0.331197 13.0948 0.364735 13.1154 0.396178 13.1361V22.735C0.396178 23.7546 1.1508 24.579 2.07941 24.579H22.9511C23.8797 24.579 24.6343 23.7546 24.6343 22.735V13.1361C24.6658 13.1131 24.6993 13.0925 24.7286 13.0718C24.9152 12.934 25.0305 12.7044 25.0305 12.4564V6.19413C25.0305 5.32839 24.3912 4.628 23.6009 4.628H17.7274V1.62203C17.7274 0.958375 17.2369 0.421021 16.6311 0.421021ZM9.27351 4.628V2.58421H15.7528V4.628H9.27351Z" fill="#424242"/>
<defs>
<linearGradient id="paint0_linear_502_88" x1="12.5142" y1="0.397138" x2="12.5142" y2="6.52504" gradientUnits="userSpaceOnUse">
<stop offset="0.0005936" stop-color="#A1887F"/>
<stop offset="0.2381" stop-color="#927971"/>
<stop offset="0.6929" stop-color="#6C524B"/>
<stop offset="1" stop-color="#4E342E"/>
</linearGradient>
<linearGradient id="paint1_linear_502_88" x1="12.5143" y1="5.68391" x2="12.5143" y2="24.4412" gradientUnits="userSpaceOnUse">
<stop stop-color="#4E342E"/>
<stop offset="0.424" stop-color="#503630"/>
<stop offset="0.618" stop-color="#583D36"/>
<stop offset="0.7651" stop-color="#644941"/>
<stop offset="0.8878" stop-color="#765950"/>
<stop offset="0.9933" stop-color="#8D6E63"/>
</linearGradient>
<linearGradient id="paint2_linear_502_88" x1="12.5142" y1="4.66262" x2="12.5142" y2="16.2669" gradientUnits="userSpaceOnUse">
<stop offset="0.0067402" stop-color="#BCAAA4"/>
<stop offset="1" stop-color="#6D4C41"/>
</linearGradient>
</defs>
</svg>
