<svg width="44" height="44" viewBox="0 0 44 44" fill="none" xmlns="http://www.w3.org/2000/svg">
<g clip-path="url(#clip0_502_165)">
<path d="M28.7069 20.2907C27.9834 20.2907 27.4246 20.4989 27.0281 20.908C26.6287 21.3161 26.38 21.8715 26.2781 22.5742H31.1271C31.0744 21.8261 30.8247 21.2601 30.3751 20.8732C29.9288 20.4854 29.3715 20.2907 28.7069 20.2907Z" fill="white"/>
<path d="M18.1342 20.014C18.5409 19.7662 18.7437 19.3258 18.7437 18.6931C18.7437 17.9942 18.4752 17.5301 17.9367 17.307C17.474 17.1519 16.8814 17.0717 16.1632 17.0717H13.3668V20.3864H16.5462C17.1992 20.3864 17.7275 20.2622 18.1342 20.014Z" fill="white"/>
<path d="M18.0941 23.1287C17.7382 22.964 17.2359 22.8799 16.5916 22.8741H13.3663V26.8784H16.5414C17.1939 26.8784 17.6986 26.7929 18.0632 26.6147C18.7205 26.2873 19.0499 25.6638 19.0499 24.7384C19.0499 23.9579 18.7307 23.4184 18.0941 23.1287Z" fill="white"/>
<path d="M21.9753 0.241793C9.97206 0.241793 0.241699 9.97216 0.241699 21.9754C0.241699 33.9786 9.97206 43.7089 21.9753 43.7089C33.9785 43.7089 43.7089 33.9786 43.7089 21.9754C43.7089 9.97216 33.9785 0.241793 21.9753 0.241793ZM25.6579 15.0858H31.709V16.5888H25.6579V15.0858ZM21.5478 27.3503C21.2634 27.8178 20.9098 28.2124 20.4848 28.5307C20.0067 28.8982 19.4402 29.1503 18.7891 29.2851C18.1362 29.4198 17.4291 29.4879 16.6675 29.4879H9.90107V14.4628H17.1577C18.9867 14.4927 20.2834 15.0226 21.0494 16.0634C21.5087 16.7018 21.7367 17.4673 21.7367 18.3579C21.7367 19.2765 21.5063 20.0116 21.0422 20.5699C20.7843 20.8829 20.4027 21.1678 19.898 21.4248C20.6626 21.7044 21.2426 22.1454 21.6304 22.752C22.0207 23.3567 22.2158 24.0908 22.2158 24.9529C22.2153 25.8444 21.9956 26.6442 21.5478 27.3503ZM34.0466 24.4308H26.2104C26.2534 25.5126 26.6272 26.269 27.3353 26.7017C27.7622 26.9731 28.2799 27.1059 28.8866 27.1059C29.526 27.1059 30.0471 26.9441 30.448 26.6119C30.6668 26.4356 30.8595 26.1873 31.0261 25.8734H33.8983C33.823 26.5124 33.4772 27.16 32.8556 27.8188C31.8925 28.8654 30.5422 29.3899 28.8078 29.3899C27.3749 29.3899 26.1124 28.9475 25.0165 28.0656C23.9241 27.1808 23.3754 25.7454 23.3754 23.7541C23.3754 21.887 23.868 20.4579 24.8562 19.463C25.8482 18.4661 27.1285 17.9701 28.7064 17.9701C29.6419 17.9701 30.4852 18.1372 31.2372 18.4734C31.9872 18.81 32.6069 19.3393 33.0951 20.0672C33.5371 20.7081 33.821 21.4494 33.9534 22.2932C34.0268 22.7853 34.0601 23.4987 34.0466 24.4308Z" fill="white"/>
</g>
<defs>
<clipPath id="clip0_502_165">
<rect width="44" height="44" fill="white"/>
</clipPath>
</defs>
</svg>
