<svg width="44" height="44" viewBox="0 0 44 44" fill="none" xmlns="http://www.w3.org/2000/svg">
<path d="M28.4652 20.3154C27.7417 20.3154 27.1829 20.5235 26.7864 20.9326C26.387 21.3407 26.1383 21.8961 26.0363 22.5988H30.8853C30.8327 21.8507 30.583 21.2847 30.1334 20.8978C29.6871 20.51 29.1298 20.3154 28.4652 20.3154Z" fill="#252525"/>
<path d="M17.8925 20.0386C18.2992 19.7909 18.502 19.3504 18.502 18.7177C18.502 18.0188 18.2335 17.5547 17.695 17.3316C17.2323 17.1765 16.6397 17.0964 15.9215 17.0964H13.1251V20.411H16.3045C16.9575 20.411 17.4858 20.2869 17.8925 20.0386Z" fill="#252525"/>
<path d="M17.8524 23.1533C17.4965 22.9886 16.9942 22.9046 16.3499 22.8988H13.1246V26.9031H16.2997C16.9522 26.9031 17.4569 26.8176 17.8215 26.6394C18.4788 26.3119 18.8082 25.6884 18.8082 24.763C18.8082 23.9825 18.489 23.4431 17.8524 23.1533Z" fill="#252525"/>
<path d="M21.7336 0.266422C9.73036 0.266422 0 9.99679 0 22C0 34.0032 9.73036 43.7336 21.7336 43.7336C33.7368 43.7336 43.4672 34.0032 43.4672 22C43.4672 9.99679 33.7368 0.266422 21.7336 0.266422ZM25.4162 15.1105H31.4673V16.6135H25.4162V15.1105ZM21.3062 27.375C21.0217 27.8425 20.6681 28.2371 20.2431 28.5553C19.765 28.9229 19.1985 29.175 18.5474 29.3097C17.8945 29.4445 17.1874 29.5126 16.4258 29.5126H9.65937V14.4874H16.916C18.745 14.5174 20.0417 15.0472 20.8077 16.088C21.267 16.7265 21.495 17.492 21.495 18.3826C21.495 19.3012 21.2646 20.0363 20.8005 20.5946C20.5426 20.9075 20.161 21.1925 19.6563 21.4494C20.4209 21.7291 21.0009 22.17 21.3887 22.7766C21.779 23.3813 21.9741 24.1154 21.9741 24.9775C21.9736 25.8691 21.7539 26.6689 21.3062 27.375ZM33.8049 24.4554H25.9687C26.0117 25.5373 26.3855 26.2936 27.0936 26.7263C27.5205 26.9978 28.0382 27.1306 28.6449 27.1306C29.2843 27.1306 29.8054 26.9688 30.2063 26.6365C30.4251 26.4602 30.6178 26.212 30.7844 25.898H33.6566C33.5813 26.537 33.2355 27.1847 32.6139 27.8434C31.6509 28.89 30.3005 29.4145 28.5661 29.4145C27.1332 29.4145 25.8707 28.9721 24.7748 28.0902C23.6824 27.2054 23.1337 25.7701 23.1337 23.7788C23.1337 21.9116 23.6263 20.4825 24.6145 19.4876C25.6065 18.4908 26.8869 17.9947 28.4647 17.9947C29.4002 17.9947 30.2435 18.1618 30.9955 18.498C31.7455 18.8346 32.3652 19.364 32.8534 20.0918C33.2954 20.7327 33.5793 21.474 33.7117 22.3178C33.7851 22.8099 33.8184 23.5233 33.8049 24.4554Z" fill="#252525"/>
</svg>
