<svg width="20" height="20" viewBox="0 0 20 20" fill="none" xmlns="http://www.w3.org/2000/svg">
<path d="M6.06921 0.39209L7.7697 2.00754C8.40738 2.60271 8.74748 3.41045 8.74748 4.3032C8.74748 5.15344 9.08757 5.96117 9.68274 6.55634L9.8953 6.7689L11.8509 0.434598" fill="#131517"/>
<path d="M0.287598 6.04652L2.62576 5.9615C3.476 5.91899 4.32624 6.25909 4.92141 6.85425C5.51658 7.44942 6.32431 7.747 7.17455 7.747H7.47214L4.32624 1.92285" fill="#131517"/>
<path d="M0.287572 14.1234L1.86052 12.4229C2.45569 11.7852 3.26342 11.4026 4.11366 11.4026C4.9639 11.4026 5.72912 11.02 6.32429 10.4249L6.53685 10.2123L0.160034 8.38428" fill="#131517"/>
<path d="M6.06917 19.7351L5.94164 17.3969C5.89912 16.5467 6.19671 15.6965 6.79188 15.0588C7.34453 14.4636 7.68463 13.6134 7.64212 12.8056V12.5081L1.86047 15.7815" fill="#131517"/>
<path d="M14.1466 19.5652L12.4036 18.0347C11.7659 17.4821 11.3833 16.6743 11.3408 15.7816C11.2983 14.9313 10.9157 14.1661 10.3205 13.571L10.108 13.3584L8.40747 19.7777" fill="#131517"/>
<path d="M19.6731 13.656L17.335 13.826C16.4847 13.911 15.6345 13.6135 14.9968 13.0183C14.3591 12.4656 13.5514 12.168 12.7011 12.2105H12.4036L15.8045 17.9072" fill="#131517"/>
<path d="M19.2905 5.62134L17.8026 7.40685C17.2499 8.04453 16.4422 8.46965 15.5919 8.51216C14.7417 8.55467 13.9765 8.93728 13.4238 9.57496L13.2538 9.78752L19.7156 11.318" fill="#131517"/>
<path d="M13.2963 0.222168L13.5089 2.56033C13.5939 3.41057 13.3388 4.26082 12.7437 4.94101C12.191 5.57869 11.9359 6.38642 11.9784 7.23666L12.0209 7.53424L17.6325 4.00575" fill="#131517"/>
</svg>
