<svg width="20" height="20" viewBox="0 0 20 20" fill="none" xmlns="http://www.w3.org/2000/svg">
<path d="M6.06921 0.392334L7.7697 2.00779C8.40738 2.60296 8.74748 3.41069 8.74748 4.30344C8.74748 5.15369 9.08757 5.96142 9.68274 6.55659L9.8953 6.76915L11.8509 0.434842" fill="#131517"/>
<path d="M0.287598 6.04652L2.62576 5.9615C3.476 5.91899 4.32624 6.25909 4.92141 6.85425C5.51658 7.44942 6.32431 7.747 7.17455 7.747H7.47214L4.32624 1.92285" fill="#131517"/>
<path d="M0.287572 14.1237L1.86052 12.4232C2.45569 11.7855 3.26342 11.4029 4.11366 11.4029C4.9639 11.4029 5.72912 11.0203 6.32429 10.4251L6.53685 10.2125L0.160034 8.38452" fill="#131517"/>
<path d="M6.06917 19.7352L5.94164 17.3971C5.89912 16.5468 6.19671 15.6966 6.79188 15.0589C7.34453 14.4637 7.68463 13.6135 7.64212 12.8058V12.5082L1.86047 15.7816" fill="#131517"/>
<path d="M14.1466 19.5653L12.4036 18.0348C11.7659 17.4822 11.3833 16.6745 11.3408 15.7817C11.2983 14.9315 10.9157 14.1662 10.3205 13.5711L10.108 13.3585L8.40747 19.7778" fill="#131517"/>
<path d="M19.6731 13.6562L17.335 13.8263C16.4847 13.9113 15.6345 13.6137 14.9968 13.0185C14.3591 12.4659 13.5514 12.1683 12.7011 12.2108H12.4036L15.8045 17.9074" fill="#131517"/>
<path d="M19.2905 5.62134L17.8026 7.40685C17.2499 8.04453 16.4422 8.46965 15.5919 8.51216C14.7417 8.55467 13.9765 8.93728 13.4238 9.57496L13.2538 9.78752L19.7156 11.318" fill="#131517"/>
<path d="M13.2963 0.222412L13.5089 2.56058C13.5939 3.41082 13.3388 4.26106 12.7437 4.94126C12.191 5.57894 11.9359 6.38666 11.9784 7.2369L12.0209 7.53449L17.6325 4.00599" fill="#131517"/>
</svg>
