<svg width="17" height="16" viewBox="0 0 17 16" fill="none" xmlns="http://www.w3.org/2000/svg">
<path d="M10.4672 12.752C11.0358 12.9171 11.625 13.0006 12.2172 13C13.1694 13.0014 14.1093 12.7843 14.9645 12.3653C14.9898 11.7678 14.8196 11.1783 14.4797 10.6862C14.1398 10.1941 13.6487 9.82624 13.081 9.63834C12.5132 9.45043 11.8996 9.45275 11.3333 9.64493C10.7669 9.83711 10.2787 10.2087 9.94249 10.7033M10.4672 12.752V12.75C10.4672 12.008 10.2765 11.31 9.94249 10.7033M10.4672 12.752V12.8227C9.18415 13.5954 7.71423 14.0025 6.21649 14C4.66249 14 3.20849 13.57 1.96716 12.8227L1.96649 12.75C1.96598 11.8063 2.27957 10.8893 2.85781 10.1435C3.43606 9.39773 4.24607 8.86562 5.16015 8.63107C6.07423 8.39651 7.04037 8.47285 7.90627 8.84806C8.77216 9.22327 9.48855 9.87599 9.94249 10.7033M8.46716 4.25C8.46716 4.84674 8.23011 5.41903 7.80815 5.84099C7.38619 6.26295 6.8139 6.5 6.21716 6.5C5.62042 6.5 5.04813 6.26295 4.62617 5.84099C4.20421 5.41903 3.96716 4.84674 3.96716 4.25C3.96716 3.65326 4.20421 3.08097 4.62617 2.65901C5.04813 2.23705 5.62042 2 6.21716 2C6.8139 2 7.38619 2.23705 7.80815 2.65901C8.23011 3.08097 8.46716 3.65326 8.46716 4.25ZM13.9672 5.75C13.9672 6.21413 13.7828 6.65925 13.4546 6.98744C13.1264 7.31563 12.6813 7.5 12.2172 7.5C11.753 7.5 11.3079 7.31563 10.9797 6.98744C10.6515 6.65925 10.4672 6.21413 10.4672 5.75C10.4672 5.28587 10.6515 4.84075 10.9797 4.51256C11.3079 4.18437 11.753 4 12.2172 4C12.6813 4 13.1264 4.18437 13.4546 4.51256C13.7828 4.84075 13.9672 5.28587 13.9672 5.75Z" stroke="#252525" stroke-linecap="round" stroke-linejoin="round"/>
</svg>
