<svg width="16" height="16" viewBox="0 0 16 16" fill="none" xmlns="http://www.w3.org/2000/svg">
<g clip-path="url(#clip0_1_5477)">
<path d="M11 4C11.6122 3.99992 12.1999 4.24043 12.6364 4.66969C13.0729 5.09895 13.3232 5.68255 13.3333 6.29467C13.3933 6.87133 13.3847 7.722 12.9947 8.704C12.596 9.708 11.8187 10.8027 10.4 11.8667C10.33 11.9192 10.2503 11.9574 10.1655 11.9791C10.0806 12.0009 9.99239 12.0057 9.90572 11.9933C9.73069 11.9683 9.57276 11.8748 9.46667 11.7333C9.36058 11.5919 9.31503 11.4141 9.34004 11.2391C9.36504 11.064 9.45856 10.9061 9.6 10.8C10.6427 10.018 11.24 9.258 11.582 8.59333C11.2614 8.67568 10.9269 8.68885 10.6007 8.63197C10.2746 8.5751 9.96434 8.44948 9.6905 8.26346C9.41666 8.07744 9.18553 7.83528 9.01248 7.55307C8.83943 7.27086 8.72841 6.95505 8.6868 6.62663C8.64518 6.29821 8.67393 5.9647 8.77113 5.64824C8.86833 5.33179 9.03175 5.03964 9.25054 4.7912C9.46934 4.54277 9.73849 4.34373 10.0401 4.20731C10.3418 4.0709 10.669 4.00023 11 4ZM5 4C5.6122 3.99992 6.19991 4.24043 6.6364 4.66969C7.07289 5.09895 7.32319 5.68255 7.33334 6.29467C7.39334 6.87133 7.38467 7.722 6.99467 8.704C6.59667 9.708 5.81867 10.8027 4.4 11.8667C4.32997 11.9192 4.25027 11.9574 4.16546 11.9791C4.08065 12.0009 3.99239 12.0057 3.90572 11.9933C3.73069 11.9683 3.57276 11.8748 3.46667 11.7333C3.36058 11.5919 3.31503 11.4141 3.34004 11.2391C3.36504 11.064 3.45855 10.9061 3.6 10.8C4.64267 10.018 5.24 9.258 5.582 8.59333C5.26136 8.67568 4.92687 8.68885 4.60075 8.63197C4.27462 8.5751 3.96434 8.44948 3.6905 8.26346C3.41666 8.07744 3.18553 7.83528 3.01248 7.55307C2.83943 7.27086 2.72841 6.95505 2.6868 6.62663C2.64518 6.29821 2.67393 5.9647 2.77113 5.64824C2.86833 5.33179 3.03175 5.03964 3.25054 4.7912C3.46934 4.54277 3.73849 4.34373 4.04012 4.20731C4.34175 4.0709 4.66896 4.00023 5 4Z" fill="white"/>
</g>
<defs>
<clipPath id="clip0_1_5477">
<rect width="16" height="16" fill="white"/>
</clipPath>
</defs>
</svg>
