<svg width="16" height="16" viewBox="0 0 16 16" fill="none" xmlns="http://www.w3.org/2000/svg">
<g clip-path="url(#clip0_515_120)">
<path d="M11.0001 4C11.6122 3.99992 12.2 4.24043 12.6364 4.66969C13.0729 5.09895 13.3232 5.68255 13.3334 6.29467C13.3934 6.87133 13.3847 7.722 12.9947 8.704C12.5961 9.708 11.8187 10.8027 10.4001 11.8667C10.33 11.9192 10.2503 11.9574 10.1655 11.9791C10.0807 12.0009 9.99244 12.0057 9.90577 11.9933C9.73074 11.9683 9.5728 11.8748 9.46672 11.7333C9.36063 11.5919 9.31508 11.4141 9.34008 11.2391C9.36509 11.064 9.4586 10.9061 9.60005 10.8C10.6427 10.018 11.2401 9.258 11.5821 8.59333C11.2614 8.67568 10.9269 8.68885 10.6008 8.63197C10.2747 8.5751 9.96438 8.44948 9.69054 8.26346C9.4167 8.07744 9.18558 7.83528 9.01253 7.55307C8.83948 7.27086 8.72846 6.95505 8.68684 6.62663C8.64523 6.29821 8.67398 5.9647 8.77118 5.64824C8.86837 5.33179 9.0318 5.03964 9.25059 4.7912C9.46938 4.54277 9.73853 4.34373 10.0402 4.20731C10.3418 4.0709 10.669 4.00023 11.0001 4ZM5.00005 4C5.61225 3.99992 6.19995 4.24043 6.63644 4.66969C7.07293 5.09895 7.32324 5.68255 7.33338 6.29467C7.39338 6.87133 7.38472 7.722 6.99472 8.704C6.59672 9.708 5.81872 10.8027 4.40005 11.8667C4.33001 11.9192 4.25031 11.9574 4.1655 11.9791C4.08069 12.0009 3.99244 12.0057 3.90577 11.9933C3.73073 11.9683 3.5728 11.8748 3.46672 11.7333C3.36063 11.5919 3.31508 11.4141 3.34008 11.2391C3.36509 11.064 3.4586 10.9061 3.60005 10.8C4.64272 10.018 5.24005 9.258 5.58205 8.59333C5.26141 8.67568 4.92692 8.68885 4.60079 8.63197C4.27467 8.5751 3.96438 8.44948 3.69054 8.26346C3.4167 8.07744 3.18558 7.83528 3.01253 7.55307C2.83947 7.27086 2.72846 6.95505 2.68684 6.62663C2.64523 6.29821 2.67398 5.9647 2.77118 5.64824C2.86837 5.33179 3.0318 5.03964 3.25059 4.7912C3.46938 4.54277 3.73853 4.34373 4.04017 4.20731C4.3418 4.0709 4.669 4.00023 5.00005 4Z" fill="white"/>
</g>
<defs>
<clipPath id="clip0_515_120">
<rect width="16" height="16" fill="white"/>
</clipPath>
</defs>
</svg>
