<svg width="24" height="24" viewBox="0 0 24 24" fill="none" xmlns="http://www.w3.org/2000/svg">
<path d="M22.6501 21.1741L15.6938 14.2178C16.7733 12.8223 17.3572 11.1161 17.3572 9.32142C17.3572 7.17321 16.5188 5.15892 15.0027 3.64017C13.4867 2.12142 11.467 1.28571 9.32148 1.28571C7.17595 1.28571 5.1563 2.1241 3.64023 3.64017C2.12148 5.15624 1.28577 7.17321 1.28577 9.32142C1.28577 11.467 2.12416 13.4866 3.64023 15.0027C5.1563 16.5214 7.17327 17.3571 9.32148 17.3571C11.1161 17.3571 12.8197 16.7732 14.2152 15.6964L21.1715 22.65C21.1919 22.6704 21.2161 22.6866 21.2428 22.6976C21.2694 22.7087 21.298 22.7144 21.3268 22.7144C21.3557 22.7144 21.3843 22.7087 21.4109 22.6976C21.4376 22.6866 21.4618 22.6704 21.4822 22.65L22.6501 21.4848C22.6705 21.4644 22.6867 21.4402 22.6977 21.4135C22.7087 21.3869 22.7144 21.3583 22.7144 21.3295C22.7144 21.3006 22.7087 21.272 22.6977 21.2454C22.6867 21.2187 22.6705 21.1945 22.6501 21.1741ZM13.5643 13.5643C12.4286 14.6973 10.9233 15.3214 9.32148 15.3214C7.7197 15.3214 6.21434 14.6973 5.07862 13.5643C3.94559 12.4286 3.32148 10.9232 3.32148 9.32142C3.32148 7.71963 3.94559 6.2116 5.07862 5.07856C6.21434 3.94553 7.7197 3.32142 9.32148 3.32142C10.9233 3.32142 12.4313 3.94285 13.5643 5.07856C14.6974 6.21428 15.3215 7.71963 15.3215 9.32142C15.3215 10.9232 14.6974 12.4312 13.5643 13.5643Z" fill="#6E7175"/>
</svg>
